<?xml version="1.0" encoding="UTF-8" standalone="no"?><svg xmlns="http://www.w3.org/2000/svg" xmlns:xlink="http://www.w3.org/1999/xlink" contentStyleType="text/css" height="717px" preserveAspectRatio="none" style="width:2088px;height:717px;background:#FFFFFF;" version="1.1" viewBox="0 0 2088 717" width="2088px" zoomAndPan="magnify"><defs/><g><!--MD5=[88b2396585e4bc150b287c56d48d1eba]
class De--><g id="elem_De"><rect codeLine="1" fill="#F1F1F1" height="96.8906" id="De" rx="2.5" ry="2.5" style="stroke:#181818;stroke-width:0.5;" width="141" x="379.5" y="557"/><ellipse cx="435.75" cy="573" fill="#ADD1B2" rx="11" ry="11" style="stroke:#181818;stroke-width:1.0;"/><path d="M438.0938,568.6719 C437.1563,568.2344 436.5625,568.0938 435.6875,568.0938 C433.0625,568.0938 431.0625,570.1719 431.0625,572.8906 L431.0625,574.0156 C431.0625,576.5938 433.1719,578.4844 436.0625,578.4844 C437.2813,578.4844 438.4375,578.1875 439.1875,577.6406 C439.7656,577.2344 440.0938,576.7813 440.0938,576.3906 C440.0938,575.9375 439.7031,575.5469 439.2344,575.5469 C439.0156,575.5469 438.8125,575.625 438.625,575.8125 C438.1719,576.2969 438.1719,576.2969 437.9844,576.3906 C437.5625,576.6563 436.875,576.7813 436.1094,576.7813 C434.0625,576.7813 432.7656,575.6875 432.7656,573.9844 L432.7656,572.8906 C432.7656,571.1094 434.0156,569.7969 435.75,569.7969 C436.3281,569.7969 436.9375,569.9531 437.4063,570.2031 C437.8906,570.4844 438.0625,570.7031 438.1563,571.1094 C438.2188,571.5156 438.25,571.6406 438.3906,571.7656 C438.5313,571.9063 438.7656,572.0156 438.9844,572.0156 C439.25,572.0156 439.5156,571.875 439.6875,571.6563 C439.7969,571.5 439.8281,571.3125 439.8281,570.8906 L439.8281,569.4688 C439.8281,569.0313 439.8125,568.9063 439.7188,568.75 C439.5625,568.4844 439.2813,568.3438 438.9844,568.3438 C438.6875,568.3438 438.4844,568.4375 438.2656,568.75 L438.0938,568.6719 Z " fill="#000000"/><text fill="#000000" font-family="sans-serif" font-size="14" lengthAdjust="spacing" textLength="20" x="456.25" y="577.8467">De</text><line style="stroke:#181818;stroke-width:0.5;" x1="380.5" x2="519.5" y1="589" y2="589"/><rect fill="none" height="6" style="stroke:#C82930;stroke-width:1.0;" width="6" x="387.5" y="597"/><text fill="#000000" font-family="sans-serif" font-size="14" lengthAdjust="spacing" textLength="115" x="399.5" y="605.9951">_valeur: number</text><ellipse cx="390.5" cy="616.2969" fill="none" rx="3" ry="3" style="stroke:#038048;stroke-width:1.0;"/><text fill="#000000" font-family="sans-serif" font-size="14" lengthAdjust="spacing" textLength="108" x="399.5" y="622.292">valeur: number</text><line style="stroke:#181818;stroke-width:0.5;" x1="380.5" x2="519.5" y1="629.5938" y2="629.5938"/><ellipse cx="390.5" cy="640.5938" fill="#84BE84" rx="3" ry="3" style="stroke:#038048;stroke-width:1.0;"/><text fill="#000000" font-family="sans-serif" font-size="14" lengthAdjust="spacing" textLength="102" x="399.5" y="646.5889">brasser(): void</text></g><!--MD5=[d3d7cbe0cb8194fabf62f4773414cf9d]
class default--><g id="elem_default"><rect codeLine="6" fill="#F1F1F1" height="64.2969" id="default" rx="2.5" ry="2.5" style="stroke:#181818;stroke-width:0.5;" width="126" x="1261" y="319"/><ellipse cx="1295.8" cy="335" fill="#A9DCDF" rx="11" ry="11" style="stroke:#181818;stroke-width:1.0;"/><path d="M1297.8781,336.8125 L1298.2688,337.7969 L1297.8781,337.7969 C1297.425,337.7969 1297.3156,337.8125 1297.1594,337.9219 C1296.9094,338.0781 1296.7531,338.3594 1296.7531,338.6563 C1296.7531,338.9219 1296.8938,339.1719 1297.1125,339.3281 C1297.2531,339.4531 1297.4563,339.5 1297.8781,339.5 L1300.2375,339.5 C1300.5969,339.5 1300.8156,339.4688 1300.9563,339.375 C1301.2063,339.2344 1301.3625,338.9375 1301.3625,338.6563 C1301.3625,338.375 1301.2219,338.125 1301.0031,337.9688 C1300.8313,337.8281 1300.675,337.7969 1300.2063,337.7969 L1296.8156,329.5938 L1293.1438,329.5938 C1292.6906,329.5938 1292.5656,329.6094 1292.4094,329.7031 C1292.1594,329.875 1292.0031,330.1563 1292.0031,330.4375 C1292.0031,330.7188 1292.1438,330.9688 1292.3625,331.1406 C1292.5344,331.25 1292.7063,331.2813 1293.1438,331.2813 L1294.2219,331.2813 L1291.5813,337.7969 C1291.1594,337.7969 1291.0031,337.8125 1290.8469,337.9219 C1290.5969,338.0781 1290.4406,338.3594 1290.4406,338.6563 C1290.4406,339.2188 1290.8156,339.5 1291.5656,339.5 L1293.8313,339.5 C1294.1906,339.5 1294.4094,339.4688 1294.5344,339.375 C1294.8,339.2344 1294.9406,338.9375 1294.9406,338.6563 C1294.9406,338.375 1294.8156,338.125 1294.5969,337.9531 C1294.425,337.8281 1294.2844,337.7969 1293.8313,337.7969 L1293.4406,337.7969 L1293.8313,336.8125 L1297.8781,336.8125 Z M1297.175,335.1094 L1294.5031,335.1094 L1295.8469,331.8438 L1297.175,335.1094 Z " fill="#000000"/><text fill="#000000" font-family="sans-serif" font-size="14" font-style="italic" lengthAdjust="spacing" textLength="50" x="1314.2" y="339.8467">default</text><line style="stroke:#181818;stroke-width:0.5;" x1="1262" x2="1386" y1="351" y2="351"/><ellipse cx="1272" cy="362" fill="none" rx="3" ry="3" style="stroke:#038048;stroke-width:1.0;"/><text fill="#000000" font-family="sans-serif" font-size="14" font-style="italic" lengthAdjust="spacing" textLength="100" x="1281" y="367.9951">code: number</text><line style="stroke:#181818;stroke-width:0.5;" x1="1262" x2="1386" y1="375.2969" y2="375.2969"/></g><!--MD5=[b8cfd8c4119a3b0a7a46bfc5fc780f85]
class Error--><g id="elem_Error"><rect fill="#F1F1F1" height="48" id="Error" rx="2.5" ry="2.5" style="stroke:#181818;stroke-width:0.5;" width="68" x="1290" y="80.5"/><ellipse cx="1305" cy="96.5" fill="#ADD1B2" rx="11" ry="11" style="stroke:#181818;stroke-width:1.0;"/><path d="M1307.3438,92.1719 C1306.4063,91.7344 1305.8125,91.5938 1304.9375,91.5938 C1302.3125,91.5938 1300.3125,93.6719 1300.3125,96.3906 L1300.3125,97.5156 C1300.3125,100.0938 1302.4219,101.9844 1305.3125,101.9844 C1306.5313,101.9844 1307.6875,101.6875 1308.4375,101.1406 C1309.0156,100.7344 1309.3438,100.2813 1309.3438,99.8906 C1309.3438,99.4375 1308.9531,99.0469 1308.4844,99.0469 C1308.2656,99.0469 1308.0625,99.125 1307.875,99.3125 C1307.4219,99.7969 1307.4219,99.7969 1307.2344,99.8906 C1306.8125,100.1563 1306.125,100.2813 1305.3594,100.2813 C1303.3125,100.2813 1302.0156,99.1875 1302.0156,97.4844 L1302.0156,96.3906 C1302.0156,94.6094 1303.2656,93.2969 1305,93.2969 C1305.5781,93.2969 1306.1875,93.4531 1306.6563,93.7031 C1307.1406,93.9844 1307.3125,94.2031 1307.4063,94.6094 C1307.4688,95.0156 1307.5,95.1406 1307.6406,95.2656 C1307.7813,95.4063 1308.0156,95.5156 1308.2344,95.5156 C1308.5,95.5156 1308.7656,95.375 1308.9375,95.1563 C1309.0469,95 1309.0781,94.8125 1309.0781,94.3906 L1309.0781,92.9688 C1309.0781,92.5313 1309.0625,92.4063 1308.9688,92.25 C1308.8125,91.9844 1308.5313,91.8438 1308.2344,91.8438 C1307.9375,91.8438 1307.7344,91.9375 1307.5156,92.25 L1307.3438,92.1719 Z " fill="#000000"/><text fill="#000000" font-family="sans-serif" font-size="14" lengthAdjust="spacing" textLength="36" x="1319" y="101.3467">Error</text><line style="stroke:#181818;stroke-width:0.5;" x1="1291" x2="1357" y1="112.5" y2="112.5"/><line style="stroke:#181818;stroke-width:0.5;" x1="1291" x2="1357" y1="120.5" y2="120.5"/></g><!--MD5=[982d1ed3a43f812f958a20e92c0b621c]
class InvalidParameterError--><g id="elem_InvalidParameterError"><rect codeLine="9" fill="#F1F1F1" height="64.2969" id="InvalidParameterError" rx="2.5" ry="2.5" style="stroke:#181818;stroke-width:0.5;" width="190" x="1422" y="319"/><ellipse cx="1437" cy="335" fill="#ADD1B2" rx="11" ry="11" style="stroke:#181818;stroke-width:1.0;"/><path d="M1439.3438,330.6719 C1438.4063,330.2344 1437.8125,330.0938 1436.9375,330.0938 C1434.3125,330.0938 1432.3125,332.1719 1432.3125,334.8906 L1432.3125,336.0156 C1432.3125,338.5938 1434.4219,340.4844 1437.3125,340.4844 C1438.5313,340.4844 1439.6875,340.1875 1440.4375,339.6406 C1441.0156,339.2344 1441.3438,338.7813 1441.3438,338.3906 C1441.3438,337.9375 1440.9531,337.5469 1440.4844,337.5469 C1440.2656,337.5469 1440.0625,337.625 1439.875,337.8125 C1439.4219,338.2969 1439.4219,338.2969 1439.2344,338.3906 C1438.8125,338.6563 1438.125,338.7813 1437.3594,338.7813 C1435.3125,338.7813 1434.0156,337.6875 1434.0156,335.9844 L1434.0156,334.8906 C1434.0156,333.1094 1435.2656,331.7969 1437,331.7969 C1437.5781,331.7969 1438.1875,331.9531 1438.6563,332.2031 C1439.1406,332.4844 1439.3125,332.7031 1439.4063,333.1094 C1439.4688,333.5156 1439.5,333.6406 1439.6406,333.7656 C1439.7813,333.9063 1440.0156,334.0156 1440.2344,334.0156 C1440.5,334.0156 1440.7656,333.875 1440.9375,333.6563 C1441.0469,333.5 1441.0781,333.3125 1441.0781,332.8906 L1441.0781,331.4688 C1441.0781,331.0313 1441.0625,330.9063 1440.9688,330.75 C1440.8125,330.4844 1440.5313,330.3438 1440.2344,330.3438 C1439.9375,330.3438 1439.7344,330.4375 1439.5156,330.75 L1439.3438,330.6719 Z " fill="#000000"/><text fill="#000000" font-family="sans-serif" font-size="14" lengthAdjust="spacing" textLength="158" x="1451" y="339.8467">InvalidParameterError</text><line style="stroke:#181818;stroke-width:0.5;" x1="1423" x2="1611" y1="351" y2="351"/><ellipse cx="1433" cy="362" fill="none" rx="3" ry="3" style="stroke:#038048;stroke-width:1.0;"/><text fill="#000000" font-family="sans-serif" font-size="14" lengthAdjust="spacing" textLength="70" x="1442" y="367.9951">code: 400</text><line style="stroke:#181818;stroke-width:0.5;" x1="1423" x2="1611" y1="375.2969" y2="375.2969"/></g><!--MD5=[cc87b201c08354ff94d02373e44b3ec8]
class AbstractError--><g id="elem_AbstractError"><rect fill="#F1F1F1" height="48" id="AbstractError" rx="2.5" ry="2.5" style="stroke:#181818;stroke-width:0.5;" width="131" x="1650.5" y="80.5"/><ellipse cx="1665.5" cy="96.5" fill="#ADD1B2" rx="11" ry="11" style="stroke:#181818;stroke-width:1.0;"/><path d="M1667.8438,92.1719 C1666.9063,91.7344 1666.3125,91.5938 1665.4375,91.5938 C1662.8125,91.5938 1660.8125,93.6719 1660.8125,96.3906 L1660.8125,97.5156 C1660.8125,100.0938 1662.9219,101.9844 1665.8125,101.9844 C1667.0313,101.9844 1668.1875,101.6875 1668.9375,101.1406 C1669.5156,100.7344 1669.8438,100.2813 1669.8438,99.8906 C1669.8438,99.4375 1669.4531,99.0469 1668.9844,99.0469 C1668.7656,99.0469 1668.5625,99.125 1668.375,99.3125 C1667.9219,99.7969 1667.9219,99.7969 1667.7344,99.8906 C1667.3125,100.1563 1666.625,100.2813 1665.8594,100.2813 C1663.8125,100.2813 1662.5156,99.1875 1662.5156,97.4844 L1662.5156,96.3906 C1662.5156,94.6094 1663.7656,93.2969 1665.5,93.2969 C1666.0781,93.2969 1666.6875,93.4531 1667.1563,93.7031 C1667.6406,93.9844 1667.8125,94.2031 1667.9063,94.6094 C1667.9688,95.0156 1668,95.1406 1668.1406,95.2656 C1668.2813,95.4063 1668.5156,95.5156 1668.7344,95.5156 C1669,95.5156 1669.2656,95.375 1669.4375,95.1563 C1669.5469,95 1669.5781,94.8125 1669.5781,94.3906 L1669.5781,92.9688 C1669.5781,92.5313 1669.5625,92.4063 1669.4688,92.25 C1669.3125,91.9844 1669.0313,91.8438 1668.7344,91.8438 C1668.4375,91.8438 1668.2344,91.9375 1668.0156,92.25 L1667.8438,92.1719 Z " fill="#000000"/><text fill="#000000" font-family="sans-serif" font-size="14" lengthAdjust="spacing" textLength="99" x="1679.5" y="101.3467">AbstractError</text><line style="stroke:#181818;stroke-width:0.5;" x1="1651.5" x2="1780.5" y1="112.5" y2="112.5"/><line style="stroke:#181818;stroke-width:0.5;" x1="1651.5" x2="1780.5" y1="120.5" y2="120.5"/></g><!--MD5=[f35b8d93951ba498799a84be5600c0ca]
class Joueur--><g id="elem_Joueur"><rect codeLine="12" fill="#F1F1F1" height="210.9688" id="Joueur" rx="2.5" ry="2.5" style="stroke:#181818;stroke-width:0.5;" width="512" x="556" y="500"/><ellipse cx="785.75" cy="516" fill="#ADD1B2" rx="11" ry="11" style="stroke:#181818;stroke-width:1.0;"/><path d="M788.0938,511.6719 C787.1563,511.2344 786.5625,511.0938 785.6875,511.0938 C783.0625,511.0938 781.0625,513.1719 781.0625,515.8906 L781.0625,517.0156 C781.0625,519.5938 783.1719,521.4844 786.0625,521.4844 C787.2813,521.4844 788.4375,521.1875 789.1875,520.6406 C789.7656,520.2344 790.0938,519.7813 790.0938,519.3906 C790.0938,518.9375 789.7031,518.5469 789.2344,518.5469 C789.0156,518.5469 788.8125,518.625 788.625,518.8125 C788.1719,519.2969 788.1719,519.2969 787.9844,519.3906 C787.5625,519.6563 786.875,519.7813 786.1094,519.7813 C784.0625,519.7813 782.7656,518.6875 782.7656,516.9844 L782.7656,515.8906 C782.7656,514.1094 784.0156,512.7969 785.75,512.7969 C786.3281,512.7969 786.9375,512.9531 787.4063,513.2031 C787.8906,513.4844 788.0625,513.7031 788.1563,514.1094 C788.2188,514.5156 788.25,514.6406 788.3906,514.7656 C788.5313,514.9063 788.7656,515.0156 788.9844,515.0156 C789.25,515.0156 789.5156,514.875 789.6875,514.6563 C789.7969,514.5 789.8281,514.3125 789.8281,513.8906 L789.8281,512.4688 C789.8281,512.0313 789.8125,511.9063 789.7188,511.75 C789.5625,511.4844 789.2813,511.3438 788.9844,511.3438 C788.6875,511.3438 788.4844,511.4375 788.2656,511.75 L788.0938,511.6719 Z " fill="#000000"/><text fill="#000000" font-family="sans-serif" font-size="14" lengthAdjust="spacing" textLength="44" x="806.25" y="520.8467">Joueur</text><line style="stroke:#181818;stroke-width:0.5;" x1="557" x2="1067" y1="532" y2="532"/><rect fill="none" height="6" style="stroke:#C82930;stroke-width:1.0;" width="6" x="564" y="540"/><text fill="#000000" font-family="sans-serif" font-size="14" lengthAdjust="spacing" textLength="90" x="576" y="548.9951">_nom: string</text><rect fill="none" height="6" style="stroke:#C82930;stroke-width:1.0;" width="6" x="564" y="556.2969"/><text fill="#000000" font-family="sans-serif" font-size="14" lengthAdjust="spacing" textLength="146" x="576" y="565.292">_nbLancers: number</text><rect fill="none" height="6" style="stroke:#C82930;stroke-width:1.0;" width="6" x="564" y="572.5938"/><text fill="#000000" font-family="sans-serif" font-size="14" lengthAdjust="spacing" textLength="199" x="576" y="581.5889">_nbLancersGagnes: number</text><ellipse cx="567" cy="591.8906" fill="none" rx="3" ry="3" style="stroke:#038048;stroke-width:1.0;"/><text fill="#000000" font-family="sans-serif" font-size="14" lengthAdjust="spacing" textLength="83" x="576" y="597.8857">nom: string</text><ellipse cx="567" cy="608.1875" fill="none" rx="3" ry="3" style="stroke:#038048;stroke-width:1.0;"/><text fill="#000000" font-family="sans-serif" font-size="14" lengthAdjust="spacing" textLength="116" x="576" y="614.1826">lancers: number</text><ellipse cx="567" cy="624.4844" fill="none" rx="3" ry="3" style="stroke:#038048;stroke-width:1.0;"/><text fill="#000000" font-family="sans-serif" font-size="14" lengthAdjust="spacing" textLength="169" x="576" y="630.4795">lancersGagnes: number</text><line style="stroke:#181818;stroke-width:0.5;" x1="557" x2="1067" y1="637.7813" y2="637.7813"/><rect fill="#F24D5C" height="6" style="stroke:#C82930;stroke-width:1.0;" width="6" x="564" y="645.7813"/><text fill="#000000" font-family="sans-serif" font-size="14" lengthAdjust="spacing" textLength="230" x="576" y="654.7764">assainirNom(nom: string): string</text><ellipse cx="567" cy="665.0781" fill="#84BE84" rx="3" ry="3" style="stroke:#038048;stroke-width:1.0;"/><text fill="#000000" font-family="sans-serif" font-size="14" lengthAdjust="spacing" textLength="93" x="576" y="671.0732">lancer(): void</text><ellipse cx="567" cy="681.375" fill="#84BE84" rx="3" ry="3" style="stroke:#038048;stroke-width:1.0;"/><text fill="#000000" font-family="sans-serif" font-size="14" lengthAdjust="spacing" textLength="99" x="576" y="687.3701">gagner(): void</text><ellipse cx="567" cy="697.6719" fill="#84BE84" rx="3" ry="3" style="stroke:#038048;stroke-width:1.0;"/><text fill="#000000" font-family="sans-serif" font-size="14" lengthAdjust="spacing" textLength="486" x="576" y="703.667">toJSON(): { nom: string; lancers: number; lancersGagnes: number; }</text></g><!--MD5=[f1ec2166af04f61bf1484fb0eaea6fc2]
class NotFoundError--><g id="elem_NotFoundError"><rect codeLine="24" fill="#F1F1F1" height="64.2969" id="NotFoundError" rx="2.5" ry="2.5" style="stroke:#181818;stroke-width:0.5;" width="137" x="1647.5" y="319"/><ellipse cx="1662.5" cy="335" fill="#ADD1B2" rx="11" ry="11" style="stroke:#181818;stroke-width:1.0;"/><path d="M1664.8438,330.6719 C1663.9063,330.2344 1663.3125,330.0938 1662.4375,330.0938 C1659.8125,330.0938 1657.8125,332.1719 1657.8125,334.8906 L1657.8125,336.0156 C1657.8125,338.5938 1659.9219,340.4844 1662.8125,340.4844 C1664.0313,340.4844 1665.1875,340.1875 1665.9375,339.6406 C1666.5156,339.2344 1666.8438,338.7813 1666.8438,338.3906 C1666.8438,337.9375 1666.4531,337.5469 1665.9844,337.5469 C1665.7656,337.5469 1665.5625,337.625 1665.375,337.8125 C1664.9219,338.2969 1664.9219,338.2969 1664.7344,338.3906 C1664.3125,338.6563 1663.625,338.7813 1662.8594,338.7813 C1660.8125,338.7813 1659.5156,337.6875 1659.5156,335.9844 L1659.5156,334.8906 C1659.5156,333.1094 1660.7656,331.7969 1662.5,331.7969 C1663.0781,331.7969 1663.6875,331.9531 1664.1563,332.2031 C1664.6406,332.4844 1664.8125,332.7031 1664.9063,333.1094 C1664.9688,333.5156 1665,333.6406 1665.1406,333.7656 C1665.2813,333.9063 1665.5156,334.0156 1665.7344,334.0156 C1666,334.0156 1666.2656,333.875 1666.4375,333.6563 C1666.5469,333.5 1666.5781,333.3125 1666.5781,332.8906 L1666.5781,331.4688 C1666.5781,331.0313 1666.5625,330.9063 1666.4688,330.75 C1666.3125,330.4844 1666.0313,330.3438 1665.7344,330.3438 C1665.4375,330.3438 1665.2344,330.4375 1665.0156,330.75 L1664.8438,330.6719 Z " fill="#000000"/><text fill="#000000" font-family="sans-serif" font-size="14" lengthAdjust="spacing" textLength="105" x="1676.5" y="339.8467">NotFoundError</text><line style="stroke:#181818;stroke-width:0.5;" x1="1648.5" x2="1783.5" y1="351" y2="351"/><ellipse cx="1658.5" cy="362" fill="none" rx="3" ry="3" style="stroke:#038048;stroke-width:1.0;"/><text fill="#000000" font-family="sans-serif" font-size="14" lengthAdjust="spacing" textLength="69" x="1667.5" y="367.9951">code: 404</text><line style="stroke:#181818;stroke-width:0.5;" x1="1648.5" x2="1783.5" y1="375.2969" y2="375.2969"/></g><!--MD5=[6ed5f5e8e8c579eabe57e3f998ef9c3f]
class AlreadyExistsError--><g id="elem_AlreadyExistsError"><rect codeLine="27" fill="#F1F1F1" height="64.2969" id="AlreadyExistsError" rx="2.5" ry="2.5" style="stroke:#181818;stroke-width:0.5;" width="164" x="1820" y="319"/><ellipse cx="1835" cy="335" fill="#ADD1B2" rx="11" ry="11" style="stroke:#181818;stroke-width:1.0;"/><path d="M1837.3438,330.6719 C1836.4063,330.2344 1835.8125,330.0938 1834.9375,330.0938 C1832.3125,330.0938 1830.3125,332.1719 1830.3125,334.8906 L1830.3125,336.0156 C1830.3125,338.5938 1832.4219,340.4844 1835.3125,340.4844 C1836.5313,340.4844 1837.6875,340.1875 1838.4375,339.6406 C1839.0156,339.2344 1839.3438,338.7813 1839.3438,338.3906 C1839.3438,337.9375 1838.9531,337.5469 1838.4844,337.5469 C1838.2656,337.5469 1838.0625,337.625 1837.875,337.8125 C1837.4219,338.2969 1837.4219,338.2969 1837.2344,338.3906 C1836.8125,338.6563 1836.125,338.7813 1835.3594,338.7813 C1833.3125,338.7813 1832.0156,337.6875 1832.0156,335.9844 L1832.0156,334.8906 C1832.0156,333.1094 1833.2656,331.7969 1835,331.7969 C1835.5781,331.7969 1836.1875,331.9531 1836.6563,332.2031 C1837.1406,332.4844 1837.3125,332.7031 1837.4063,333.1094 C1837.4688,333.5156 1837.5,333.6406 1837.6406,333.7656 C1837.7813,333.9063 1838.0156,334.0156 1838.2344,334.0156 C1838.5,334.0156 1838.7656,333.875 1838.9375,333.6563 C1839.0469,333.5 1839.0781,333.3125 1839.0781,332.8906 L1839.0781,331.4688 C1839.0781,331.0313 1839.0625,330.9063 1838.9688,330.75 C1838.8125,330.4844 1838.5313,330.3438 1838.2344,330.3438 C1837.9375,330.3438 1837.7344,330.4375 1837.5156,330.75 L1837.3438,330.6719 Z " fill="#000000"/><text fill="#000000" font-family="sans-serif" font-size="14" lengthAdjust="spacing" textLength="132" x="1849" y="339.8467">AlreadyExistsError</text><line style="stroke:#181818;stroke-width:0.5;" x1="1821" x2="1983" y1="351" y2="351"/><ellipse cx="1831" cy="362" fill="none" rx="3" ry="3" style="stroke:#038048;stroke-width:1.0;"/><text fill="#000000" font-family="sans-serif" font-size="14" lengthAdjust="spacing" textLength="70" x="1840" y="367.9951">code: 400</text><line style="stroke:#181818;stroke-width:0.5;" x1="1821" x2="1983" y1="375.2969" y2="375.2969"/></g><!--MD5=[955c46d588e65b80d2148cbe2eb850d8]
class JeuDeDes--><g id="elem_JeuDeDes"><rect codeLine="30" fill="#F1F1F1" height="178.375" id="JeuDeDes" rx="2.5" ry="2.5" style="stroke:#181818;stroke-width:0.5;" width="258" x="502" y="262"/><ellipse cx="592.75" cy="278" fill="#ADD1B2" rx="11" ry="11" style="stroke:#181818;stroke-width:1.0;"/><path d="M595.0938,273.6719 C594.1563,273.2344 593.5625,273.0938 592.6875,273.0938 C590.0625,273.0938 588.0625,275.1719 588.0625,277.8906 L588.0625,279.0156 C588.0625,281.5938 590.1719,283.4844 593.0625,283.4844 C594.2813,283.4844 595.4375,283.1875 596.1875,282.6406 C596.7656,282.2344 597.0938,281.7813 597.0938,281.3906 C597.0938,280.9375 596.7031,280.5469 596.2344,280.5469 C596.0156,280.5469 595.8125,280.625 595.625,280.8125 C595.1719,281.2969 595.1719,281.2969 594.9844,281.3906 C594.5625,281.6563 593.875,281.7813 593.1094,281.7813 C591.0625,281.7813 589.7656,280.6875 589.7656,278.9844 L589.7656,277.8906 C589.7656,276.1094 591.0156,274.7969 592.75,274.7969 C593.3281,274.7969 593.9375,274.9531 594.4063,275.2031 C594.8906,275.4844 595.0625,275.7031 595.1563,276.1094 C595.2188,276.5156 595.25,276.6406 595.3906,276.7656 C595.5313,276.9063 595.7656,277.0156 595.9844,277.0156 C596.25,277.0156 596.5156,276.875 596.6875,276.6563 C596.7969,276.5 596.8281,276.3125 596.8281,275.8906 L596.8281,274.4688 C596.8281,274.0313 596.8125,273.9063 596.7188,273.75 C596.5625,273.4844 596.2813,273.3438 595.9844,273.3438 C595.6875,273.3438 595.4844,273.4375 595.2656,273.75 L595.0938,273.6719 Z " fill="#000000"/><text fill="#000000" font-family="sans-serif" font-size="14" lengthAdjust="spacing" textLength="68" x="613.25" y="282.8467">JeuDeDes</text><line style="stroke:#181818;stroke-width:0.5;" x1="503" x2="759" y1="294" y2="294"/><rect fill="none" height="6" style="stroke:#C82930;stroke-width:1.0;" width="6" x="510" y="302"/><text fill="#000000" font-family="sans-serif" font-size="14" lengthAdjust="spacing" textLength="213" x="522" y="310.9951">_joueurs: Map&lt;string, Joueur&gt;</text><rect fill="none" height="6" style="stroke:#C82930;stroke-width:1.0;" width="6" x="510" y="318.2969"/><text fill="#000000" font-family="sans-serif" font-size="14" lengthAdjust="spacing" textLength="54" x="522" y="327.292">_d1: De</text><rect fill="none" height="6" style="stroke:#C82930;stroke-width:1.0;" width="6" x="510" y="334.5938"/><text fill="#000000" font-family="sans-serif" font-size="14" lengthAdjust="spacing" textLength="53" x="522" y="343.5889">_d2: De</text><ellipse cx="513" cy="353.8906" fill="none" rx="3" ry="3" style="stroke:#038048;stroke-width:1.0;"/><text fill="#000000" font-family="sans-serif" font-size="14" lengthAdjust="spacing" textLength="102" x="522" y="359.8857">joueurs: string</text><line style="stroke:#181818;stroke-width:0.5;" x1="503" x2="759" y1="367.1875" y2="367.1875"/><ellipse cx="513" cy="378.1875" fill="#84BE84" rx="3" ry="3" style="stroke:#038048;stroke-width:1.0;"/><text fill="#000000" font-family="sans-serif" font-size="14" lengthAdjust="spacing" textLength="232" x="522" y="384.1826">demarrerJeu(nom: string): string</text><ellipse cx="513" cy="394.4844" fill="#84BE84" rx="3" ry="3" style="stroke:#038048;stroke-width:1.0;"/><text fill="#000000" font-family="sans-serif" font-size="14" lengthAdjust="spacing" textLength="180" x="522" y="400.4795">jouer(nom: string): string</text><ellipse cx="513" cy="410.7813" fill="#84BE84" rx="3" ry="3" style="stroke:#038048;stroke-width:1.0;"/><text fill="#000000" font-family="sans-serif" font-size="14" lengthAdjust="spacing" textLength="229" x="522" y="416.7764">terminerJeu(nom: string): string</text><ellipse cx="513" cy="427.0781" fill="#84BE84" rx="3" ry="3" style="stroke:#038048;stroke-width:1.0;"/><text fill="#000000" font-family="sans-serif" font-size="14" lengthAdjust="spacing" textLength="128" x="522" y="433.0732">brasser(): number</text></g><!--MD5=[ca7b6a2175bd6b35994298570096c60f]
class JeuRouter--><g id="elem_JeuRouter"><rect codeLine="40" fill="#F1F1F1" height="194.6719" id="JeuRouter" rx="2.5" ry="2.5" style="stroke:#181818;stroke-width:0.5;" width="1248" x="7" y="7"/><ellipse cx="591.75" cy="23" fill="#ADD1B2" rx="11" ry="11" style="stroke:#181818;stroke-width:1.0;"/><path d="M594.0938,18.6719 C593.1563,18.2344 592.5625,18.0938 591.6875,18.0938 C589.0625,18.0938 587.0625,20.1719 587.0625,22.8906 L587.0625,24.0156 C587.0625,26.5938 589.1719,28.4844 592.0625,28.4844 C593.2813,28.4844 594.4375,28.1875 595.1875,27.6406 C595.7656,27.2344 596.0938,26.7813 596.0938,26.3906 C596.0938,25.9375 595.7031,25.5469 595.2344,25.5469 C595.0156,25.5469 594.8125,25.625 594.625,25.8125 C594.1719,26.2969 594.1719,26.2969 593.9844,26.3906 C593.5625,26.6563 592.875,26.7813 592.1094,26.7813 C590.0625,26.7813 588.7656,25.6875 588.7656,23.9844 L588.7656,22.8906 C588.7656,21.1094 590.0156,19.7969 591.75,19.7969 C592.3281,19.7969 592.9375,19.9531 593.4063,20.2031 C593.8906,20.4844 594.0625,20.7031 594.1563,21.1094 C594.2188,21.5156 594.25,21.6406 594.3906,21.7656 C594.5313,21.9063 594.7656,22.0156 594.9844,22.0156 C595.25,22.0156 595.5156,21.875 595.6875,21.6563 C595.7969,21.5 595.8281,21.3125 595.8281,20.8906 L595.8281,19.4688 C595.8281,19.0313 595.8125,18.9063 595.7188,18.75 C595.5625,18.4844 595.2813,18.3438 594.9844,18.3438 C594.6875,18.3438 594.4844,18.4375 594.2656,18.75 L594.0938,18.6719 Z " fill="#000000"/><text fill="#000000" font-family="sans-serif" font-size="14" lengthAdjust="spacing" textLength="70" x="612.25" y="27.8467">JeuRouter</text><line style="stroke:#181818;stroke-width:0.5;" x1="8" x2="1254" y1="39" y2="39"/><rect fill="none" height="6" style="stroke:#C82930;stroke-width:1.0;" width="6" x="15" y="47"/><text fill="#000000" font-family="sans-serif" font-size="14" lengthAdjust="spacing" textLength="110" x="27" y="55.9951">_router: Router</text><rect fill="none" height="6" style="stroke:#C82930;stroke-width:1.0;" width="6" x="15" y="63.2969"/><text fill="#000000" font-family="sans-serif" font-size="14" lengthAdjust="spacing" textLength="180" x="27" y="72.292">_controleurJeu: JeuDeDes</text><ellipse cx="18" cy="82.5938" fill="none" rx="3" ry="3" style="stroke:#038048;stroke-width:1.0;"/><text fill="#000000" font-family="sans-serif" font-size="14" lengthAdjust="spacing" textLength="173" x="27" y="88.5889">controleurJeu: JeuDeDes</text><ellipse cx="18" cy="98.8906" fill="none" rx="3" ry="3" style="stroke:#038048;stroke-width:1.0;"/><text fill="#000000" font-family="sans-serif" font-size="14" lengthAdjust="spacing" textLength="103" x="27" y="104.8857">router: Router</text><line style="stroke:#181818;stroke-width:0.5;" x1="8" x2="1254" y1="112.1875" y2="112.1875"/><ellipse cx="18" cy="123.1875" fill="#84BE84" rx="3" ry="3" style="stroke:#038048;stroke-width:1.0;"/><text fill="#000000" font-family="sans-serif" font-size="14" lengthAdjust="spacing" textLength="1222" x="27" y="129.1826">demarrerJeu(req: Request&lt;ParamsDictionary, any, any, QueryString.ParsedQs, Record&lt;string, any&gt;&gt;, res: Response&lt;any, Record&lt;string, any&gt;&gt;, next: NextFunction): void</text><ellipse cx="18" cy="139.4844" fill="#84BE84" rx="3" ry="3" style="stroke:#038048;stroke-width:1.0;"/><text fill="#000000" font-family="sans-serif" font-size="14" lengthAdjust="spacing" textLength="1170" x="27" y="145.4795">jouer(req: Request&lt;ParamsDictionary, any, any, QueryString.ParsedQs, Record&lt;string, any&gt;&gt;, res: Response&lt;any, Record&lt;string, any&gt;&gt;, next: NextFunction): void</text><rect fill="#F24D5C" height="6" style="stroke:#C82930;stroke-width:1.0;" width="6" x="15" y="152.7813"/><text fill="#000000" font-family="sans-serif" font-size="14" lengthAdjust="spacing" textLength="1173" x="27" y="161.7764">_errorCode500(error: any, req: Request&lt;ParamsDictionary, any, any, QueryString.ParsedQs, Record&lt;string, any&gt;&gt;, res: Response&lt;any, Record&lt;string, any&gt;&gt;): void</text><ellipse cx="18" cy="172.0781" fill="#84BE84" rx="3" ry="3" style="stroke:#038048;stroke-width:1.0;"/><text fill="#000000" font-family="sans-serif" font-size="14" lengthAdjust="spacing" textLength="1219" x="27" y="178.0732">terminerJeu(req: Request&lt;ParamsDictionary, any, any, QueryString.ParsedQs, Record&lt;string, any&gt;&gt;, res: Response&lt;any, Record&lt;string, any&gt;&gt;, next: NextFunction): void</text><ellipse cx="18" cy="188.375" fill="#84BE84" rx="3" ry="3" style="stroke:#038048;stroke-width:1.0;"/><text fill="#000000" font-family="sans-serif" font-size="14" lengthAdjust="spacing" textLength="73" x="27" y="194.3701">init(): void</text></g><!--MD5=[335f4d9be48430461c68bf6d6fdba145]
class App--><g id="elem_App"><rect codeLine="51" fill="#F1F1F1" height="96.8906" id="App" rx="2.5" ry="2.5" style="stroke:#181818;stroke-width:0.5;" width="265" x="1816.5" y="56"/><ellipse cx="1929.75" cy="72" fill="#ADD1B2" rx="11" ry="11" style="stroke:#181818;stroke-width:1.0;"/><path d="M1932.0938,67.6719 C1931.1563,67.2344 1930.5625,67.0938 1929.6875,67.0938 C1927.0625,67.0938 1925.0625,69.1719 1925.0625,71.8906 L1925.0625,73.0156 C1925.0625,75.5938 1927.1719,77.4844 1930.0625,77.4844 C1931.2813,77.4844 1932.4375,77.1875 1933.1875,76.6406 C1933.7656,76.2344 1934.0938,75.7813 1934.0938,75.3906 C1934.0938,74.9375 1933.7031,74.5469 1933.2344,74.5469 C1933.0156,74.5469 1932.8125,74.625 1932.625,74.8125 C1932.1719,75.2969 1932.1719,75.2969 1931.9844,75.3906 C1931.5625,75.6563 1930.875,75.7813 1930.1094,75.7813 C1928.0625,75.7813 1926.7656,74.6875 1926.7656,72.9844 L1926.7656,71.8906 C1926.7656,70.1094 1928.0156,68.7969 1929.75,68.7969 C1930.3281,68.7969 1930.9375,68.9531 1931.4063,69.2031 C1931.8906,69.4844 1932.0625,69.7031 1932.1563,70.1094 C1932.2188,70.5156 1932.25,70.6406 1932.3906,70.7656 C1932.5313,70.9063 1932.7656,71.0156 1932.9844,71.0156 C1933.25,71.0156 1933.5156,70.875 1933.6875,70.6563 C1933.7969,70.5 1933.8281,70.3125 1933.8281,69.8906 L1933.8281,68.4688 C1933.8281,68.0313 1933.8125,67.9063 1933.7188,67.75 C1933.5625,67.4844 1933.2813,67.3438 1932.9844,67.3438 C1932.6875,67.3438 1932.4844,67.4375 1932.2656,67.75 L1932.0938,67.6719 Z " fill="#000000"/><text fill="#000000" font-family="sans-serif" font-size="14" lengthAdjust="spacing" textLength="30" x="1950.25" y="76.8467">App</text><line style="stroke:#181818;stroke-width:0.5;" x1="1817.5" x2="2080.5" y1="88" y2="88"/><ellipse cx="1827.5" cy="99" fill="none" rx="3" ry="3" style="stroke:#038048;stroke-width:1.0;"/><text fill="#000000" font-family="sans-serif" font-size="14" lengthAdjust="spacing" textLength="239" x="1836.5" y="104.9951">expressApp: express.Application</text><line style="stroke:#181818;stroke-width:0.5;" x1="1817.5" x2="2080.5" y1="112.2969" y2="112.2969"/><rect fill="#F24D5C" height="6" style="stroke:#C82930;stroke-width:1.0;" width="6" x="1824.5" y="120.2969"/><text fill="#000000" font-family="sans-serif" font-size="14" lengthAdjust="spacing" textLength="132" x="1836.5" y="129.292">middleware(): void</text><rect fill="#F24D5C" height="6" style="stroke:#C82930;stroke-width:1.0;" width="6" x="1824.5" y="136.5938"/><text fill="#000000" font-family="sans-serif" font-size="14" lengthAdjust="spacing" textLength="95" x="1836.5" y="145.5889">routes(): void</text></g><!--MD5=[de5348e3cb1ed9a777a419280ce11012]
reverse link Error to default--><g id="link_Error_default"><path d="M1324,148.614 C1324,197.411 1324,275.707 1324,318.891 " fill="none" id="Error-backto-default" style="stroke:#181818;stroke-width:1.0;"/><polygon fill="none" points="1317,148.502,1324,128.502,1331,148.502,1317,148.502" style="stroke:#181818;stroke-width:1.0;"/></g><!--MD5=[2cb87898d17ce6955e61110340b96a9f]
reverse link AbstractError to InvalidParameterError--><g id="link_AbstractError_InvalidParameterError"><path d="M1684.59,144.088 C1645.24,192.439 1578.58,274.345 1542.32,318.891 " fill="none" id="AbstractError-backto-InvalidParameterError" style="stroke:#181818;stroke-width:1.0;"/><polygon fill="none" points="1679.22,139.595,1697.28,128.502,1690.08,148.432,1679.22,139.595" style="stroke:#181818;stroke-width:1.0;"/></g><!--MD5=[d334bc8545be6ddf4415069b8a651a27]
reverse link AbstractError to NotFoundError--><g id="link_AbstractError_NotFoundError"><path d="M1716,148.614 C1716,197.411 1716,275.707 1716,318.891 " fill="none" id="AbstractError-backto-NotFoundError" style="stroke:#181818;stroke-width:1.0;"/><polygon fill="none" points="1709,148.502,1716,128.502,1723,148.502,1709,148.502" style="stroke:#181818;stroke-width:1.0;"/></g><!--MD5=[a975a7b33779d4759a3766f012102c89]
reverse link AbstractError to AlreadyExistsError--><g id="link_AbstractError_AlreadyExistsError"><path d="M1745.84,144.724 C1782.68,193.153 1844.59,274.539 1878.33,318.891 " fill="none" id="AbstractError-backto-AlreadyExistsError" style="stroke:#181818;stroke-width:1.0;"/><polygon fill="none" points="1740.04,148.658,1733.5,128.502,1751.18,140.181,1740.04,148.658" style="stroke:#181818;stroke-width:1.0;"/></g><!--MD5=[ef2ce4409030dcc2624b03e8295601b2]
link JeuDeDes to Joueur--><g id="link_JeuDeDes_Joueur"><path codeLine="56" d="M694.305,440.312 C707.1,458.161 720.694,477.126 733.927,495.586 " fill="none" id="JeuDeDes-to-Joueur" style="stroke:#181818;stroke-width:1.0;"/><polygon fill="#181818" points="736.923,499.765,734.9314,490.1196,734.0103,495.701,728.429,494.7799,736.923,499.765" style="stroke:#181818;stroke-width:1.0;"/><text fill="#000000" font-family="sans-serif" font-size="13" lengthAdjust="spacing" textLength="8" x="723.3629" y="488.8758">1</text></g><!--MD5=[9bec41e9208b9b1c090cb4295b478655]
link JeuDeDes to De--><g id="link_JeuDeDes_De"><path codeLine="57" d="M567.695,440.312 C540.865,477.741 510.52,520.073 487.362,552.379 " fill="none" id="JeuDeDes-to-De" style="stroke:#181818;stroke-width:1.0;"/><polygon fill="#181818" points="484.287,556.668,492.781,551.6829,487.1997,552.604,486.2786,547.0226,484.287,556.668" style="stroke:#181818;stroke-width:1.0;"/><text fill="#000000" font-family="sans-serif" font-size="13" lengthAdjust="spacing" textLength="8" x="480.5461" y="545.8302">1</text></g><!--MD5=[87da3bb1b3639ae5b80f38abdf5c2c5d]
link JeuRouter to JeuDeDes--><g id="link_JeuRouter_JeuDeDes"><path codeLine="58" d="M631,202.133 C631,220.068 631,238.774 631,256.61 " fill="none" id="JeuRouter-to-JeuDeDes" style="stroke:#181818;stroke-width:1.0;"/><polygon fill="#181818" points="631,261.616,635,252.616,631,256.616,627,252.616,631,261.616" style="stroke:#181818;stroke-width:1.0;"/><text fill="#000000" font-family="sans-serif" font-size="13" lengthAdjust="spacing" textLength="8" x="622.6813" y="250.9528">1</text></g><!--MD5=[70c706b1dce3e5be6c077f0b2ea63693]
@startuml
class De {
    -_valeur: number
    +brasser(): void
    +valeur: number
}
abstract class default extends Error {
    +{abstract} code: number
}
class InvalidParameterError extends AbstractError {
    +code: 400
}
class Joueur {
    -_nom: string
    -_nbLancers: number
    -_nbLancersGagnes: number
    +nom: string
    -assainirNom(nom: string): string
    +lancers: number
    +lancersGagnes: number
    +lancer(): void
    +gagner(): void
    +toJSON(): { nom: string; lancers: number; lancersGagnes: number; }
}
class NotFoundError extends AbstractError {
    +code: 404
}
class AlreadyExistsError extends AbstractError {
    +code: 400
}
class JeuDeDes {
    -_joueurs: Map<string, Joueur>
    -_d1: De
    -_d2: De
    +demarrerJeu(nom: string): string
    +jouer(nom: string): string
    +terminerJeu(nom: string): string
    +brasser(): number
    +joueurs: string
}
class JeuRouter {
    -_router: Router
    -_controleurJeu: JeuDeDes
    +controleurJeu: JeuDeDes
    +router: Router
    +demarrerJeu(req: Request<ParamsDictionary, any, any, QueryString.ParsedQs, Record<string, any>>, res: Response<any, Record<string, any>>, next: NextFunction): void
    +jouer(req: Request<ParamsDictionary, any, any, QueryString.ParsedQs, Record<string, any>>, res: Response<any, Record<string, any>>, next: NextFunction): void
    -_errorCode500(error: any, req: Request<ParamsDictionary, any, any, QueryString.ParsedQs, Record<string, any>>, res: Response<any, Record<string, any>>): void
    +terminerJeu(req: Request<ParamsDictionary, any, any, QueryString.ParsedQs, Record<string, any>>, res: Response<any, Record<string, any>>, next: NextFunction): void
    +init(): void
}
class App {
    +expressApp: express.Application
    -middleware(): void
    -routes(): void
}
JeuDeDes - -> "1" Joueur
JeuDeDes - -> "1" De
JeuRouter - -> "1" JeuDeDes
@enduml

PlantUML version 1.2022.7beta2(Unknown compile time)
(GPL source distribution)
Java Runtime: Java(TM) SE Runtime Environment
JVM: Java HotSpot(TM) 64-Bit Server VM
Default Encoding: UTF-8
Language: en
Country: US
--></g></svg>